<svg width="17" height="17" viewBox="0 0 17 17" fill="none" xmlns="http://www.w3.org/2000/svg">
<path fillRule="evenodd" clipRule="evenodd" d="M7.58578 0.642295C7.831 0.61218 8.201 0.594971 8.50215 0.594971C12.9119 0.594971 16.5 4.18303 16.5 8.59282C16.5 13.0026 12.9162 16.595 8.50215 16.595C4.08806 16.595 0.5 13.0026 0.5 8.59282C0.5 6.2352 1.53254 4.00664 3.33517 2.48365C3.51586 2.32877 3.78691 2.35028 3.94179 2.53528C4.09667 2.71597 4.07515 2.98701 3.89016 3.13759C2.28112 4.5014 1.36045 6.48903 1.36045 8.59282C1.36045 12.5294 4.56561 15.7345 8.50215 15.7345C12.4387 15.7345 15.6396 12.5294 15.6396 8.59282C15.6396 4.65628 12.4387 1.45542 8.50215 1.45542C8.23541 1.45542 7.90414 1.47263 7.68903 1.49844C6.82428 1.606 6.30371 2.11796 6.30371 2.83643C6.30371 3.55491 6.87591 4.14001 7.58578 4.16582C7.60298 4.17013 7.6374 4.17013 7.6374 4.17013H8.7861V3.7313C8.7861 3.58072 8.66564 3.45596 8.51506 3.45596C8.36448 3.45596 8.24402 3.58072 8.24402 3.7313V3.75711H7.65461C7.6331 2.56109 9.42713 2.5697 9.3755 3.78723L9.35399 4.06257L9.34539 4.17013L9.27655 5.03057V5.06069L8.51506 14.7708L7.75356 5.03057H7.65031C6.42848 5.03057 5.44326 4.00664 5.44326 2.83643C5.44326 1.66623 6.2822 0.80578 7.58578 0.642295ZM8.7861 5.55114V5.03057H8.24402V5.55114C8.24402 5.70172 8.36448 5.82218 8.51506 5.82218C8.66564 5.82218 8.7861 5.70172 8.7861 5.55114ZM11.4836 4.17013C11.7202 4.17013 11.9138 4.35942 11.9138 4.60035C11.9138 4.83697 11.7202 5.03057 11.4836 5.03057H9.82293V4.17013H11.4836Z" fill="url(#paint0_linear_21_1423)"/>
<defs>
<linearGradient id="paint0_linear_21_1423" x1="8.36738" y1="0.936423" x2="8.57108" y2="16.5735" gradientUnits="userSpaceOnUse">
<stop offset="0.39424" stop-color="#F30B88"/>
<stop offset="1" stop-color="#9E24B6"/>
</linearGradient>
</defs>
</svg>
