<svg width="281" height="62" viewBox="0 0 281 62" fill="none" xmlns="http://www.w3.org/2000/svg">
<path fill-rule="evenodd" clip-rule="evenodd" d="M27.5717 1.17747C28.4913 1.06453 29.8787 1 31.0081 1C47.5448 1 61 14.4552 61 30.9919C61 47.5286 47.5609 61 31.0081 61C14.4552 61 1 47.5286 1 30.9919C1 22.1508 4.87201 13.7938 11.6319 8.08255C12.3095 7.50175 13.3259 7.58242 13.9067 8.27615C14.4875 8.95375 14.4068 9.97015 13.7131 10.5348C7.67921 15.6491 4.22667 23.1027 4.22667 30.9919C4.22667 45.754 16.246 57.7733 31.0081 57.7733C45.7701 57.7733 57.7733 45.754 57.7733 30.9919C57.7733 16.2299 45.7701 4.22667 31.0081 4.22667C30.0078 4.22667 28.7655 4.29121 27.9589 4.38801C24.7161 4.79134 22.7639 6.71121 22.7639 9.40549C22.7639 12.0998 24.9097 14.2939 27.5717 14.3907C27.6362 14.4068 27.7653 14.4068 27.7653 14.4068H32.0729V12.7612C32.0729 12.1966 31.6211 11.7287 31.0565 11.7287C30.4918 11.7287 30.0401 12.1966 30.0401 12.7612V12.858H27.8298C27.7491 8.37295 34.4767 8.40522 34.2831 12.971L34.2025 14.0035L34.1702 14.4068L33.9121 17.6335V17.7464L31.0565 54.1595L28.2009 17.6335H27.8137C23.2318 17.6335 19.5372 13.7938 19.5372 9.40549C19.5372 5.01721 22.6832 1.79054 27.5717 1.17747ZM32.0729 19.5856V17.6335H30.0401V19.5856C30.0401 20.1503 30.4918 20.602 31.0565 20.602C31.6211 20.602 32.0729 20.1503 32.0729 19.5856ZM42.1865 14.4062C43.0738 14.4062 43.7998 15.1161 43.7998 16.0196C43.7998 16.9069 43.0738 17.6329 42.1865 17.6329H35.959V14.4062H42.1865Z" fill="url(#paint0_linear_1586_2333)"/>
<path d="M27.5717 1.17747L27.4941 0.545846L27.4925 0.54605L27.5717 1.17747ZM11.6319 8.08255L12.0426 8.56866L12.046 8.56571L11.6319 8.08255ZM13.9067 8.27615L13.4187 8.68468L13.4235 8.69029L13.9067 8.27615ZM13.7131 10.5348L13.3113 10.0412L13.3016 10.0494L13.7131 10.5348ZM27.9589 4.38801L27.883 3.75617L27.8803 3.75651L27.9589 4.38801ZM27.5717 14.3907L27.726 13.7733L27.6614 13.7572L27.5948 13.7548L27.5717 14.3907ZM27.7653 14.4068L27.7653 15.0432H27.7653V14.4068ZM32.0729 14.4068V15.0432H32.7092V14.4068H32.0729ZM30.0401 12.858V13.4944H30.6764V12.858H30.0401ZM27.8298 12.858L27.1935 12.8695L27.2048 13.4944H27.8298V12.858ZM34.2831 12.971L34.9176 13.0205L34.9184 13.0092L34.9189 12.9979L34.2831 12.971ZM34.2025 14.0035L34.8368 14.0542L34.8369 14.0531L34.2025 14.0035ZM34.1702 14.4068L34.8045 14.4576V14.4576L34.1702 14.4068ZM33.9121 17.6335L33.2777 17.5828L33.2757 17.6081V17.6335H33.9121ZM33.9121 17.7464L34.5465 17.7962L34.5484 17.7714V17.7464H33.9121ZM31.0565 54.1595L30.422 54.2091L31.6909 54.2092L31.0565 54.1595ZM28.2009 17.6335L28.8353 17.5839L28.7894 16.9971H28.2009V17.6335ZM32.0729 17.6335H32.7092V16.9971H32.0729V17.6335ZM30.0401 17.6335V16.9971H29.4037V17.6335H30.0401ZM35.959 17.6329H35.3226V18.2693H35.959V17.6329ZM35.959 14.4062V13.7699H35.3226V14.4062H35.959ZM31.0081 0.363636C29.863 0.363636 28.4479 0.42872 27.4941 0.545848L27.6492 1.80909C28.5347 1.70035 29.8945 1.63636 31.0081 1.63636V0.363636ZM61.6364 30.9919C61.6364 14.1038 47.8962 0.363636 31.0081 0.363636V1.63636C47.1933 1.63636 60.3636 14.8067 60.3636 30.9919H61.6364ZM31.0081 61.6364C47.913 61.6364 61.6364 47.8794 61.6364 30.9919H60.3636C60.3636 47.1779 47.2088 60.3636 31.0081 60.3636V61.6364ZM0.363636 30.9919C0.363636 47.8799 14.1036 61.6364 31.0081 61.6364V60.3636C14.8069 60.3636 1.63636 47.1774 1.63636 30.9919H0.363636ZM11.2212 7.59645C4.31799 13.4288 0.363636 21.9638 0.363636 30.9919H1.63636C1.63636 22.3379 5.42603 14.1588 12.0426 8.56865L11.2212 7.59645ZM14.3946 7.86764C13.5868 6.90274 12.1649 6.78754 11.2178 7.59939L12.046 8.56571C12.4541 8.21596 13.065 8.26209 13.4188 8.68465L14.3946 7.86764ZM14.1148 11.0284C15.0916 10.2333 15.1988 8.80577 14.3899 7.86201L13.4235 8.69029C13.7762 9.10173 13.722 9.70702 13.3114 10.0413L14.1148 11.0284ZM4.86304 30.9919C4.86304 23.2899 8.23316 16.0138 14.1246 11.0203L13.3016 10.0494C7.12527 15.2844 3.59031 22.9155 3.59031 30.9919H4.86304ZM31.0081 57.137C16.5975 57.137 4.86304 45.4025 4.86304 30.9919H3.59031C3.59031 46.1054 15.8946 58.4097 31.0081 58.4097V57.137ZM57.137 30.9919C57.137 45.403 45.4181 57.137 31.0081 57.137V58.4097C46.1221 58.4097 58.4097 46.1049 58.4097 30.9919H57.137ZM31.0081 4.86304C45.4186 4.86304 57.137 16.5814 57.137 30.9919H58.4097C58.4097 15.8784 46.1216 3.59031 31.0081 3.59031V4.86304ZM28.0347 5.01984C28.8105 4.92674 30.0267 4.86304 31.0081 4.86304V3.59031C29.9889 3.59031 28.7205 3.65568 27.883 3.75618L28.0347 5.01984ZM23.4003 9.40549C23.4003 8.22289 23.8239 7.23647 24.5886 6.49427C25.3609 5.74458 26.5199 5.20825 28.0374 5.01951L27.8803 3.75651C26.155 3.9711 24.7165 4.59637 23.7021 5.58102C22.68 6.57316 22.1276 7.8938 22.1276 9.40549H23.4003ZM27.5948 13.7548C25.2724 13.6703 23.4003 11.7547 23.4003 9.40549H22.1276C22.1276 12.4448 24.5469 14.9175 27.5485 15.0266L27.5948 13.7548ZM27.7653 14.4068C27.7653 13.7705 27.7653 13.7705 27.7653 13.7705C27.7654 13.7705 27.7654 13.7705 27.7654 13.7705C27.7655 13.7705 27.7655 13.7705 27.7656 13.7705C27.7656 13.7705 27.7657 13.7705 27.7658 13.7705C27.7659 13.7705 27.7661 13.7705 27.7662 13.7705C27.7664 13.7705 27.7664 13.7705 27.7664 13.7705C27.7664 13.7705 27.7659 13.7705 27.7651 13.7705C27.7634 13.7704 27.7604 13.7704 27.7563 13.7703C27.7479 13.7702 27.7365 13.7698 27.7244 13.7692C27.6836 13.7672 27.6914 13.7647 27.726 13.7733L27.4173 15.0081C27.5164 15.0328 27.6211 15.0384 27.6609 15.0404C27.6891 15.0418 27.714 15.0425 27.7318 15.0428C27.7409 15.043 27.7484 15.0431 27.7541 15.0431C27.7569 15.0432 27.7593 15.0432 27.7612 15.0432C27.7621 15.0432 27.7629 15.0432 27.7636 15.0432C27.764 15.0432 27.7643 15.0432 27.7645 15.0432C27.7647 15.0432 27.7648 15.0432 27.7649 15.0432C27.765 15.0432 27.765 15.0432 27.7651 15.0432C27.7651 15.0432 27.7652 15.0432 27.7652 15.0432C27.7652 15.0432 27.7653 15.0432 27.7653 14.4068ZM32.0729 13.7705H27.7653V15.0432H32.0729V13.7705ZM31.4365 12.7612V14.4068H32.7092V12.7612H31.4365ZM31.0565 12.3651C31.2567 12.3651 31.4365 12.5349 31.4365 12.7612H32.7092C32.7092 11.8582 31.9856 11.0923 31.0565 11.0923V12.3651ZM30.6764 12.7612C30.6764 12.5349 30.8562 12.3651 31.0565 12.3651V11.0923C30.1274 11.0923 29.4037 11.8582 29.4037 12.7612H30.6764ZM30.6764 12.858V12.7612H29.4037V12.858H30.6764ZM27.8298 13.4944H30.0401V12.2217H27.8298V13.4944ZM34.9189 12.9979C34.9745 11.688 34.5296 10.6475 33.7846 9.93617C33.0511 9.23588 32.0695 8.89473 31.1058 8.88411C30.1423 8.8735 29.1542 9.19274 28.4049 9.86909C27.6436 10.5563 27.1703 11.5757 27.1935 12.8695L28.4661 12.8466C28.449 11.8978 28.7864 11.2393 29.2577 10.8139C29.7411 10.3775 30.4077 10.1492 31.0918 10.1568C31.7757 10.1643 32.4347 10.407 32.9057 10.8567C33.3652 11.2954 33.6886 11.9711 33.6473 12.944L34.9189 12.9979ZM34.8369 14.0531L34.9176 13.0205L33.6487 12.9214L33.568 13.9539L34.8369 14.0531ZM34.8045 14.4576L34.8368 14.0542L33.5681 13.9528L33.5359 14.3561L34.8045 14.4576ZM34.5464 17.6843L34.8045 14.4576L33.5359 14.3561L33.2777 17.5828L34.5464 17.6843ZM34.5484 17.7464V17.6335H33.2757V17.7464H34.5484ZM31.6909 54.2092L34.5465 17.7962L33.2777 17.6967L30.422 54.1097L31.6909 54.2092ZM27.5664 17.6831L30.422 54.2091L31.6909 54.1099L28.8353 17.5839L27.5664 17.6831ZM27.8137 18.2699H28.2009V16.9971H27.8137V18.2699ZM18.9009 9.40549C18.9009 14.1404 22.8755 18.2699 27.8137 18.2699V16.9971C23.5881 16.9971 20.1736 13.4472 20.1736 9.40549H18.9009ZM27.4925 0.54605C22.3437 1.19177 18.9009 4.64114 18.9009 9.40549H20.1736C20.1736 5.39328 23.0228 2.3893 27.6508 1.80888L27.4925 0.54605ZM31.4365 17.6335V19.5856H32.7092V17.6335H31.4365ZM30.0401 18.2699H32.0729V16.9971H30.0401V18.2699ZM30.6764 19.5856V17.6335H29.4037V19.5856H30.6764ZM31.0565 19.9657C30.8433 19.9657 30.6764 19.7989 30.6764 19.5856H29.4037C29.4037 20.5018 30.1403 21.2384 31.0565 21.2384V19.9657ZM31.4365 19.5856C31.4365 19.7989 31.2697 19.9657 31.0565 19.9657V21.2384C31.9726 21.2384 32.7092 20.5018 32.7092 19.5856H31.4365ZM44.4362 16.0196C44.4362 14.7605 43.4211 13.7699 42.1865 13.7699V15.0426C42.7265 15.0426 43.1634 15.4717 43.1634 16.0196H44.4362ZM42.1865 18.2693C43.4253 18.2693 44.4362 17.2584 44.4362 16.0196H43.1634C43.1634 16.5555 42.7223 16.9966 42.1865 16.9966V18.2693ZM35.959 18.2693H42.1865V16.9966H35.959V18.2693ZM35.3226 14.4062V17.6329H36.5953V14.4062H35.3226ZM42.1865 13.7699H35.959V15.0426H42.1865V13.7699Z" fill="url(#paint1_linear_1586_2333)"/>
<path d="M265.792 21.375V11.1641H273.393V21.375H280.427V27.2746H273.393V37.3153C273.393 39.6979 273.639 41.2673 274.13 42.0237C274.66 42.7422 275.757 43.1015 277.421 43.1015H280.427V49.0012H274.925C271.559 49.0012 269.195 48.2259 267.834 46.6753C266.472 45.1248 265.792 42.4397 265.792 38.6201V27.2746H260.97V21.375H265.792Z" fill="#651A71"/>
<path d="M248.738 21.375H256.34V49.0012H248.738V21.375ZM248.738 18.5386V11.1641H256.34V18.5386H248.738Z" fill="#651A71"/>
<path d="M229.46 27.2746H224.468V21.375H229.46V19.7299C229.46 16.7044 230.084 14.5299 231.332 13.2062C232.618 11.8448 234.66 11.1641 237.458 11.1641H244.152V17.0637H240.295C239.122 17.0637 238.29 17.2906 237.799 17.7444C237.307 18.1982 237.061 18.9924 237.061 20.127V21.375H244.152V27.2746H237.061V49.0012H229.46V27.2746Z" fill="#651A71"/>
<path d="M199.824 21.3745H211.056C215.292 21.3745 218.147 22.0363 219.622 23.36C221.097 24.6836 221.834 27.2741 221.834 31.1316V33.8545H214.517V32.3796C214.517 30.4131 214.176 29.0705 213.495 28.352C212.815 27.6334 211.529 27.2741 209.638 27.2741H207.426V49.0007H199.824V21.3745Z" fill="#651A71"/>
<path d="M179.509 20.9771C184.122 20.9771 187.715 22.244 190.287 24.7778C192.858 27.3116 194.144 30.8854 194.144 35.4992C194.144 39.7727 192.821 43.1574 190.173 45.6534C187.526 48.1494 183.896 49.3974 179.282 49.3974C174.819 49.3974 171.302 48.1494 168.73 45.6534C166.197 43.1196 164.93 39.6214 164.93 35.1589C164.93 30.8098 166.234 27.3683 168.844 24.8345C171.491 22.2629 175.046 20.9771 179.509 20.9771ZM179.395 26.82C174.933 26.82 172.701 29.6185 172.701 35.2156C172.701 40.7749 175.008 43.5545 179.622 43.5545C184.122 43.5545 186.373 40.7749 186.373 35.2156C186.373 29.6185 184.047 26.82 179.395 26.82Z" fill="#651A71"/>
<path d="M159.339 49.0012H151.737V11.1641H159.339V49.0012Z" fill="#651A71"/>
<path d="M136.671 21.375H144.272V49.0012H136.671V21.375ZM136.671 18.5386V11.1641H144.272V18.5386H136.671Z" fill="#651A71"/>
<path d="M121.989 32.2094V31.7556C121.989 30.0538 121.573 28.8814 120.741 28.2385C119.909 27.5956 118.397 27.2741 116.203 27.2741H103.383V21.3745H116.203C119.645 21.3745 122.046 21.5636 123.408 21.9418C124.769 22.32 125.941 23.0952 126.925 24.2676C127.946 25.44 128.645 26.7069 129.024 28.0683C129.402 29.392 129.591 31.1883 129.591 33.4574V49.0007H113.594C110.493 49.0007 108.432 48.9251 107.411 48.7738C106.427 48.6225 105.179 47.9985 103.667 46.9018C102.154 45.8051 101.397 43.7629 101.397 40.7752C101.397 38.8465 101.851 37.1636 102.759 35.7265C103.667 34.2894 104.839 33.344 106.276 32.8901C107.713 32.4363 109.85 32.2094 112.686 32.2094H121.989ZM121.989 38.1091H113.197H111.949C110.058 38.1091 109.112 38.96 109.112 40.6618C109.112 41.5316 109.415 42.1556 110.02 42.5338C110.663 42.912 111.722 43.1011 113.197 43.1011H121.989V38.1091Z" fill="#651A71"/>
<path d="M83.0894 21.375V11.1641H90.6909V21.375H97.725V27.2746H90.6909V37.3153C90.6909 39.6979 90.9367 41.2673 91.4283 42.0237C91.9578 42.7422 93.0545 43.1015 94.7185 43.1015H97.725V49.0012H92.2225C88.8567 49.0012 86.493 48.2259 85.1316 46.6753C83.7701 45.1248 83.0894 42.4397 83.0894 38.6201V27.2746H78.2676V21.375H83.0894Z" fill="#651A71"/>
<defs>
<linearGradient id="paint0_linear_1586_2333" x1="1" y1="6.54348" x2="62.9687" y2="13.5244" gradientUnits="userSpaceOnUse">
<stop stop-color="#F30B88"/>
<stop offset="1" stop-color="#9E24B6"/>
</linearGradient>
<linearGradient id="paint1_linear_1586_2333" x1="1" y1="6.54348" x2="62.9687" y2="13.5244" gradientUnits="userSpaceOnUse">
<stop stop-color="#F30B88"/>
<stop offset="1" stop-color="#9E24B6"/>
</linearGradient>
</defs>
</svg>
