<svg width="208" height="47" viewBox="0 0 208 47" fill="none" xmlns="http://www.w3.org/2000/svg">
<path fill-rule="evenodd" clip-rule="evenodd" d="M20.6843 1.1331C21.3656 1.0484 22.3934 1 23.23 1C35.4804 1 45.4481 11.0914 45.4481 23.494C45.4481 35.8965 35.4924 46 23.23 46C10.9676 46 1 35.8965 1 23.494C1 16.8631 3.86839 10.5953 8.87611 6.31191C9.37808 5.87631 10.131 5.93681 10.5613 6.45711C10.9915 6.96531 10.9318 7.72762 10.4179 8.15112C5.94797 11.9868 3.39032 17.577 3.39032 23.494C3.39032 34.5655 12.2943 43.58 23.23 43.58C34.1657 43.58 43.0577 34.5655 43.0577 23.494C43.0577 12.4224 34.1657 3.42001 23.23 3.42001C22.489 3.42001 21.5687 3.46841 20.9711 3.54101C18.5689 3.84351 17.1227 5.28341 17.1227 7.30411C17.1227 9.32482 18.7123 10.9704 20.6843 11.043C20.7321 11.0551 20.8277 11.0551 20.8277 11.0551H24.0188V9.82092C24.0188 9.39742 23.6842 9.04652 23.2659 9.04652C22.8476 9.04652 22.5129 9.39742 22.5129 9.82092V9.89352H20.8755C20.8158 6.52971 25.7996 6.55391 25.6562 9.97822L25.5964 10.7526L25.5725 11.0551L25.3813 13.4751V13.5598L23.2659 40.8696L21.1504 13.4751H20.8636C17.4693 13.4751 14.7324 10.5953 14.7324 7.30411C14.7324 4.01291 17.063 1.5929 20.6843 1.1331ZM24.0188 14.9392V13.4751H22.5129V14.9392C22.5129 15.3627 22.8476 15.7015 23.2659 15.7015C23.6842 15.7015 24.0188 15.3627 24.0188 14.9392ZM31.5118 11.0547C32.1691 11.0547 32.7069 11.5871 32.7069 12.2647C32.7069 12.9302 32.1691 13.4747 31.5118 13.4747H26.8984V11.0547H31.5118Z" fill="url(#paint0_linear_1580_327)"/>
<path d="M20.6843 1.1331L20.6261 0.665282L20.6249 0.665436L20.6843 1.1331ZM8.87611 6.31191L9.18255 6.67016L9.18509 6.66796L8.87611 6.31191ZM10.5613 6.45711L10.198 6.75756L10.2015 6.76172L10.5613 6.45711ZM10.4179 8.15112L10.118 7.78724L10.1109 7.79336L10.4179 8.15112ZM20.9711 3.54101L20.9143 3.07302L20.9123 3.07328L20.9711 3.54101ZM20.6843 11.043L20.8 10.586L20.7516 10.5738L20.7017 10.5719L20.6843 11.043ZM24.0188 11.0551V11.5265H24.4902V11.0551H24.0188ZM22.5129 9.89352V10.3649H22.9843V9.89352H22.5129ZM20.8755 9.89352L20.4042 9.90189L20.4124 10.3649H20.8755V9.89352ZM25.6562 9.97822L26.1262 10.0145L26.1268 10.0062L26.1272 9.99795L25.6562 9.97822ZM25.5964 10.7526L26.0664 10.7898L26.0664 10.7889L25.5964 10.7526ZM25.5725 11.0551L26.0425 11.0923L25.5725 11.0551ZM25.3813 13.4751L24.9113 13.438L24.9099 13.4565V13.4751H25.3813ZM25.3813 13.5598L25.8513 13.5962L25.8527 13.5781V13.5598H25.3813ZM23.2659 40.8696L22.7958 40.9059L23.7359 40.906L23.2659 40.8696ZM21.1504 13.4751L21.6204 13.4388L21.5868 13.0037H21.1504V13.4751ZM24.0188 13.4751H24.4902V13.0037H24.0188V13.4751ZM22.5129 13.4751V13.0037H22.0415V13.4751H22.5129ZM26.8984 13.4747H26.427V13.9461H26.8984V13.4747ZM26.8984 11.0547V10.5833H26.427V11.0547H26.8984ZM23.23 0.528581C22.3816 0.528581 21.333 0.577399 20.6261 0.665284L20.7425 1.60092C21.3981 1.5194 22.4052 1.47142 23.23 1.47142V0.528581ZM45.9195 23.494C45.9195 10.8366 35.7462 0.528581 23.23 0.528581V1.47142C35.2146 1.47142 44.9766 11.3463 44.9766 23.494H45.9195ZM23.23 46.4714C35.7587 46.4714 45.9195 36.1508 45.9195 23.494H44.9766C44.9766 35.6421 35.226 45.5286 23.23 45.5286V46.4714ZM0.528581 23.494C0.528581 36.1512 10.7017 46.4714 23.23 46.4714V45.5286C11.2336 45.5286 1.47142 35.6418 1.47142 23.494H0.528581ZM8.56969 5.95367C3.45623 10.3275 0.528581 16.7267 0.528581 23.494H1.47142C1.47142 16.9996 4.28055 10.8631 9.18254 6.67016L8.56969 5.95367ZM10.9246 6.15669C10.3265 5.43349 9.27016 5.34579 8.56714 5.95586L9.18509 6.66796C9.48601 6.40683 9.93553 6.44014 10.198 6.75753L10.9246 6.15669ZM10.7177 8.51492C11.4392 7.92033 11.5171 6.8565 10.9211 6.1525L10.2015 6.76172C10.466 7.07413 10.4244 7.5349 10.1181 7.78731L10.7177 8.51492ZM3.86174 23.494C3.86174 17.7136 6.36007 12.2544 10.7249 8.50887L10.1109 7.79336C5.53587 11.7193 2.9189 17.4405 2.9189 23.494H3.86174ZM23.23 43.1086C12.5601 43.1086 3.86174 34.3106 3.86174 23.494H2.9189C2.9189 34.8203 12.0285 44.0514 23.23 44.0514V43.1086ZM42.5863 23.494C42.5863 34.311 33.8995 43.1086 23.23 43.1086V44.0514C34.4319 44.0514 43.5292 34.82 43.5292 23.494H42.5863ZM23.23 3.89142C33.8999 3.89142 42.5863 12.6773 42.5863 23.494H43.5292C43.5292 12.1676 34.4316 2.94859 23.23 2.94859V3.89142ZM21.028 4.00898C21.6025 3.93919 22.5032 3.89142 23.23 3.89142V2.94859C22.4748 2.94859 21.535 2.99762 20.9143 3.07303L21.028 4.00898ZM17.5941 7.30411C17.5941 6.41378 17.9094 5.67181 18.4765 5.11447C19.049 4.55193 19.9071 4.15013 21.03 4.00873L20.9123 3.07328C19.6329 3.23438 18.5669 3.70379 17.8157 4.442C17.0592 5.18541 16.6513 6.17374 16.6513 7.30411H17.5941ZM20.7017 10.5719C18.9863 10.5088 17.5941 9.07449 17.5941 7.30411H16.6513C16.6513 9.57515 18.4382 11.4321 20.667 11.5141L20.7017 10.5719ZM20.8277 11.0551C20.8277 10.5837 20.8278 10.5837 20.8278 10.5837C20.8278 10.5837 20.8278 10.5837 20.8278 10.5837C20.8279 10.5837 20.8279 10.5837 20.8279 10.5837C20.828 10.5837 20.8281 10.5837 20.8281 10.5837C20.8282 10.5837 20.8283 10.5837 20.8284 10.5837C20.8286 10.5837 20.8286 10.5837 20.8286 10.5837C20.8286 10.5837 20.8282 10.5837 20.8276 10.5837C20.8264 10.5837 20.8242 10.5837 20.8212 10.5836C20.815 10.5835 20.8067 10.5832 20.7978 10.5828C20.7675 10.5813 20.7738 10.5794 20.8 10.586L20.5686 11.5C20.6426 11.5187 20.7206 11.5229 20.7501 11.5244C20.7711 11.5255 20.7896 11.526 20.8029 11.5263C20.8096 11.5264 20.8152 11.5265 20.8194 11.5265C20.8215 11.5265 20.8233 11.5265 20.8247 11.5265C20.8254 11.5265 20.826 11.5265 20.8265 11.5265C20.8268 11.5265 20.827 11.5265 20.8272 11.5265C20.8273 11.5265 20.8274 11.5265 20.8275 11.5265C20.8275 11.5265 20.8276 11.5265 20.8276 11.5265C20.8276 11.5265 20.8277 11.5265 20.8277 11.5265C20.8277 11.5265 20.8277 11.5265 20.8277 11.0551ZM24.0188 10.5837H20.8277V11.5265H24.0188V10.5837ZM23.5474 9.82092V11.0551H24.4902V9.82092H23.5474ZM23.2659 9.51794C23.4088 9.51794 23.5474 9.6425 23.5474 9.82092H24.4902C24.4902 9.15233 23.9595 8.5751 23.2659 8.5751V9.51794ZM22.9843 9.82092C22.9843 9.6425 23.1229 9.51794 23.2659 9.51794V8.5751C22.5722 8.5751 22.0415 9.15234 22.0415 9.82092H22.9843ZM22.9843 9.89352V9.82092H22.0415V9.89352H22.9843ZM20.8755 10.3649H22.5129V9.4221H20.8755V10.3649ZM26.1272 9.99795C26.2969 5.94549 20.3326 5.87173 20.4042 9.90189L21.3469 9.88515C21.299 7.1877 25.3023 7.16233 25.1852 9.95849L26.1272 9.99795ZM26.0664 10.7889L26.1262 10.0145L25.1862 9.94195L25.1264 10.7164L26.0664 10.7889ZM26.0425 11.0923L26.0664 10.7898L25.1265 10.7155L25.1026 11.018L26.0425 11.0923ZM25.8512 13.5123L26.0425 11.0923L25.1026 11.018L24.9113 13.438L25.8512 13.5123ZM25.8527 13.5598V13.4751H24.9099V13.5598H25.8527ZM23.7359 40.906L25.8513 13.5962L24.9113 13.5234L22.7958 40.8332L23.7359 40.906ZM20.6804 13.5114L22.7958 40.9059L23.7359 40.8333L21.6204 13.4388L20.6804 13.5114ZM20.8636 13.9465H21.1504V13.0037H20.8636V13.9465ZM14.261 7.30411C14.261 10.8466 17.2 13.9465 20.8636 13.9465V13.0037C17.7387 13.0037 15.2038 10.3441 15.2038 7.30411H14.261ZM20.6249 0.665436C16.8063 1.15029 14.261 3.73889 14.261 7.30411H15.2038C15.2038 4.28692 17.3196 2.03552 20.7437 1.60076L20.6249 0.665436ZM23.5474 13.4751V14.9392H24.4902V13.4751H23.5474ZM22.5129 13.9465H24.0188V13.0037H22.5129V13.9465ZM22.9843 14.9392V13.4751H22.0415V14.9392H22.9843ZM23.2659 15.2301C23.1134 15.2301 22.9843 15.1079 22.9843 14.9392H22.0415C22.0415 15.6176 22.5817 16.173 23.2659 16.173V15.2301ZM23.5474 14.9392C23.5474 15.1079 23.4183 15.2301 23.2659 15.2301V16.173C23.95 16.173 24.4902 15.6176 24.4902 14.9392H23.5474ZM33.1783 12.2647C33.1783 11.3291 32.4319 10.5833 31.5118 10.5833V11.5261C31.9063 11.5261 32.2355 11.845 32.2355 12.2647H33.1783ZM31.5118 13.9461C32.4349 13.9461 33.1783 13.185 33.1783 12.2647H32.2355C32.2355 12.6753 31.9033 13.0033 31.5118 13.0033V13.9461ZM26.8984 13.9461H31.5118V13.0033H26.8984V13.9461ZM26.427 11.0547V13.4747H27.3699V11.0547H26.427ZM31.5118 10.5833H26.8984V11.5261H31.5118V10.5833Z" fill="url(#paint1_linear_1580_327)"/>
<path d="M197.156 16.2812V8.62305H202.787V16.2812H207.998V20.706H202.787V28.2365C202.787 30.0234 202.969 31.2005 203.333 31.7678C203.726 32.3067 204.538 32.5761 205.771 32.5761H207.998V37.0009H203.922C201.428 37.0009 199.677 36.4194 198.669 35.2565C197.66 34.0936 197.156 32.0798 197.156 29.215V20.706H193.584V16.2812H197.156Z" fill="#651A71"/>
<path d="M184.523 16.2812H190.155V37.0009H184.523V16.2812ZM184.523 14.154V8.62305H190.155V14.154H184.523Z" fill="#651A71"/>
<path d="M170.241 20.706H166.543V16.2812H170.241V15.0474C170.241 12.7783 170.703 11.1474 171.628 10.1547C172.58 9.13359 174.093 8.62305 176.166 8.62305H181.125V13.0478H178.268C177.399 13.0478 176.783 13.218 176.419 13.5583C176.054 13.8987 175.872 14.4943 175.872 15.3452V16.2812H181.125V20.706H175.872V37.0009H170.241V20.706Z" fill="#651A71"/>
<path d="M148.287 16.2808H156.608C159.746 16.2808 161.861 16.7771 162.953 17.7699C164.046 18.7626 164.592 20.7055 164.592 23.5986V25.6408H159.171V24.5346C159.171 23.0597 158.919 22.0528 158.415 21.5139C157.911 20.9749 156.958 20.7055 155.557 20.7055H153.918V37.0004H148.287V16.2808Z" fill="#651A71"/>
<path d="M133.238 15.9825C136.655 15.9825 139.317 16.9327 141.222 18.8331C143.127 20.7335 144.08 23.4138 144.08 26.8742C144.08 30.0793 143.099 32.6178 141.138 34.4898C139.177 36.3618 136.487 37.2978 133.069 37.2978C129.764 37.2978 127.158 36.3618 125.253 34.4898C123.376 32.5895 122.438 29.9658 122.438 26.6189C122.438 23.3571 123.404 20.776 125.337 18.8756C127.298 16.9469 129.932 15.9825 133.238 15.9825ZM133.154 20.3647C129.848 20.3647 128.195 22.4636 128.195 26.6615C128.195 30.8309 129.904 32.9156 133.322 32.9156C136.655 32.9156 138.322 30.8309 138.322 26.6615C138.322 22.4636 136.599 20.3647 133.154 20.3647Z" fill="#651A71"/>
<path d="M118.295 37.0009H112.664V8.62305H118.295V37.0009Z" fill="#651A71"/>
<path d="M101.504 16.2812H107.135V37.0009H101.504V16.2812ZM101.504 14.154V8.62305H107.135V14.154H101.504Z" fill="#651A71"/>
<path d="M90.6276 24.4069V24.0666C90.6276 22.7902 90.3194 21.9109 89.7031 21.4288C89.0868 20.9466 87.9661 20.7055 86.3412 20.7055H76.8439V16.2808H86.3412C88.8906 16.2808 90.6696 16.4226 91.6782 16.7062C92.6868 16.9899 93.5553 17.5713 94.2837 18.4506C95.0401 19.3299 95.5584 20.28 95.8385 21.3011C96.1187 22.2939 96.2588 23.6411 96.2588 25.3429V37.0004H84.4081C82.1108 37.0004 80.584 36.9437 79.8276 36.8302C79.0991 36.7168 78.1746 36.2488 77.054 35.4262C75.9334 34.6037 75.373 33.072 75.373 30.8313C75.373 29.3848 75.7092 28.1226 76.3816 27.0448C77.054 25.9669 77.9225 25.2579 78.9871 24.9175C80.0517 24.5771 81.6346 24.4069 83.7357 24.4069H90.6276ZM90.6276 28.8317H84.114H83.1894C81.7887 28.8317 81.0883 29.4699 81.0883 30.7462C81.0883 31.3986 81.3124 31.8666 81.7606 32.1502C82.2369 32.4339 83.0213 32.5757 84.114 32.5757H90.6276V28.8317Z" fill="#651A71"/>
<path d="M61.8103 16.2812V8.62305H67.4415V16.2812H72.6524V20.706H67.4415V28.2365C67.4415 30.0234 67.6236 31.2005 67.9878 31.7678C68.38 32.3067 69.1924 32.5761 70.4251 32.5761H72.6524V37.0009H68.5761C66.0827 37.0009 64.3317 36.4194 63.3231 35.2565C62.3146 34.0936 61.8103 32.0798 61.8103 29.215V20.706H58.2383V16.2812H61.8103Z" fill="#651A71"/>
<defs>
<linearGradient id="paint0_linear_1580_327" x1="1" y1="5.15761" x2="46.9205" y2="10.2672" gradientUnits="userSpaceOnUse">
<stop stop-color="#F30B88"/>
<stop offset="1" stop-color="#9E24B6"/>
</linearGradient>
<linearGradient id="paint1_linear_1580_327" x1="1" y1="5.15761" x2="46.9205" y2="10.2672" gradientUnits="userSpaceOnUse">
<stop stop-color="#F30B88"/>
<stop offset="1" stop-color="#9E24B6"/>
</linearGradient>
</defs>
</svg>
